<svg width="24" height="24" viewBox="0 0 24 24" fill="none" xmlns="http://www.w3.org/2000/svg">
<path d="M6.825 2C3.33176 2 0.5 4.87217 0.5 8.41631C0.5 12.1308 2.58553 15.6352 6.03438 18.8434C7.21151 19.9377 8.47893 20.8978 9.73588 21.7599C10.1764 22.0609 10.5885 22.3339 10.9579 22.5614C11.183 22.7002 11.3315 22.8005 11.425 22.853C11.7723 23.049 12.2277 23.049 12.575 22.853C12.6685 22.8005 12.817 22.7002 13.0421 22.5614C13.4115 22.3339 13.8236 22.0609 14.2641 21.7599C15.5211 20.8978 16.7885 19.9377 17.9656 18.8434C21.4145 15.6352 23.5 12.1308 23.5 8.41631C23.5 4.87217 20.6682 2 17.175 2C15.191 2 13.254 3.09662 12.0359 4.6972C10.8482 3.06862 8.91788 2 6.825 2Z" fill="#FF613C"/>
</svg>
