<svg width="24" height="24" viewBox="0 0 24 24" fill="none" xmlns="http://www.w3.org/2000/svg">
<path fill-rule="evenodd" clip-rule="evenodd" d="M2.14056 1.67863C2.53109 1.28811 3.16425 1.28812 3.55477 1.67864L22.338 20.4623C22.7285 20.8528 22.7285 21.486 22.3379 21.8765C21.9474 22.2671 21.3142 22.267 20.9237 21.8765L2.14054 3.09284C1.75002 2.70231 1.75003 2.06915 2.14056 1.67863Z" fill="#145044"/>
<path fill-rule="evenodd" clip-rule="evenodd" d="M9.36873 9.00342C8.27236 9.62634 7.85742 10.5025 7.85742 12C7.85742 14.2881 9.71224 16.1429 12.0003 16.1429C13.2381 16.1429 14.3479 15.6002 15.1064 14.7412L13.6872 13.322C13.2942 13.8226 12.684 14.1429 12.0003 14.1429C10.8168 14.1429 9.85742 13.1835 9.85742 12C9.85742 11.3163 10.1777 10.7061 10.6784 10.3131L9.36873 9.00342Z" fill="#145044"/>
<path fill-rule="evenodd" clip-rule="evenodd" d="M7.58654 5.71169C6.8554 6.03658 6.16987 6.41863 5.53922 6.82321C3.74984 7.97115 2.33406 9.34414 1.47699 10.2665L1.46719 10.2772C1.04074 10.7497 0.804688 11.3636 0.804688 12.0001C0.804688 12.6366 1.04074 13.2504 1.46719 13.7229L1.47699 13.7336C2.33406 14.656 3.74984 16.029 5.53922 17.1769C7.32341 18.3215 9.54689 19.2858 11.9995 19.2858C14.4522 19.2858 16.6757 18.3215 18.4599 17.1769C18.5805 17.0995 18.6995 17.0211 18.8167 16.9419L17.3729 15.4981C15.7723 16.5237 13.9284 17.2858 11.9995 17.2858C10.0679 17.2858 8.2214 16.5215 6.61916 15.4936C5.02621 14.4716 3.74164 13.2319 2.94822 12.3788C2.85578 12.2744 2.80469 12.1397 2.80469 12.0001C2.80469 11.8605 2.85578 11.7258 2.94822 11.6213C3.74164 10.7682 5.02621 9.5285 6.61916 8.50658C7.40154 8.00466 8.24216 7.56558 9.1225 7.24765L7.58654 5.71169ZM19.0075 14.3042C19.8537 13.6097 20.5501 12.9173 21.0509 12.3788C21.1433 12.2744 21.1944 12.1397 21.1944 12.0001C21.1944 11.8605 21.1433 11.7258 21.0509 11.6214C20.2575 10.7682 18.9729 9.52851 17.3799 8.50658C15.7777 7.47869 13.9312 6.71436 11.9995 6.71436C11.8118 6.71436 11.6248 6.72158 11.4388 6.73556L9.69468 4.99141C10.4341 4.8156 11.2048 4.71436 11.9995 4.71436C14.4522 4.71436 16.6757 5.6786 18.4599 6.82321C20.2493 7.97115 21.665 9.34414 22.5221 10.2665L22.5319 10.2772C22.9584 10.7497 23.1944 11.3636 23.1944 12.0001C23.1944 12.6366 22.9584 13.2504 22.5319 13.7229L22.5221 13.7336C22.0102 14.2845 21.299 14.9962 20.4279 15.7246L19.0075 14.3042Z" fill="#145044"/>
</svg>
