<svg width="24" height="24" viewBox="0 0 24 24" fill="none" xmlns="http://www.w3.org/2000/svg">
<path d="M21.7895 10.9472C22.0502 11.236 22.1944 11.6111 22.1944 12.0001C22.1944 12.389 22.0502 12.7642 21.7895 13.0529C20.1395 14.8286 16.3838 18.2858 11.9995 18.2858C7.61526 18.2858 3.85955 14.8286 2.20955 13.0529C1.94894 12.7642 1.80469 12.389 1.80469 12.0001C1.80469 11.6111 1.94894 11.236 2.20955 10.9472C3.85955 9.1715 7.61526 5.71436 11.9995 5.71436C16.3838 5.71436 20.1395 9.1715 21.7895 10.9472Z" stroke="#145044" stroke-width="2" stroke-linecap="round" stroke-linejoin="round"/>
<path d="M11.9993 15.1431C13.7351 15.1431 15.1422 13.736 15.1422 12.0003C15.1422 10.2645 13.7351 8.85742 11.9993 8.85742C10.2636 8.85742 8.85645 10.2645 8.85645 12.0003C8.85645 13.736 10.2636 15.1431 11.9993 15.1431Z" stroke="#145044" stroke-width="2" stroke-linecap="round" stroke-linejoin="round"/>
</svg>
