<svg width="180" height="95" viewBox="0 0 180 95" fill="none" xmlns="http://www.w3.org/2000/svg">
<path fill-rule="evenodd" clip-rule="evenodd" d="M161.694 76.6564C160.837 78.2436 158.999 79.3409 156.87 79.3409C153.922 79.3409 151.532 77.2376 151.532 74.6431C151.532 72.0486 153.922 69.9453 156.87 69.9453C158.999 69.9453 160.837 71.0426 161.694 72.6297H180.001V76.6564H161.694Z" fill="white"/>
<path fill-rule="evenodd" clip-rule="evenodd" d="M121.433 42.772C121.433 39.9059 123.756 37.5825 126.622 37.5825H173.327C176.193 37.5825 178.517 39.9059 178.517 42.772V72.6295H162.731C161.874 71.0424 160.036 69.9452 157.907 69.9452C154.959 69.9452 152.569 72.0484 152.569 74.643C152.569 77.2375 154.959 79.3408 157.907 79.3408C160.036 79.3408 161.875 78.2434 162.731 76.6562H178.517V89.8106C178.517 92.6767 176.193 95.0001 173.327 95.0001H126.622C123.756 95.0001 121.433 92.6767 121.433 89.8106V60.9967H138.256C139.113 62.584 140.951 63.6814 143.08 63.6814C146.028 63.6814 148.418 61.5782 148.418 58.9836C148.418 56.3891 146.028 54.2858 143.08 54.2858C140.951 54.2858 139.113 55.383 138.256 56.9701H121.433V42.772Z" fill="#FFC01E"/>
<path fill-rule="evenodd" clip-rule="evenodd" d="M66.4248 37.5825C63.5588 37.5825 61.2354 39.9059 61.2354 42.772V89.8106C61.2354 92.6767 63.5588 95.0001 66.4248 95.0001H87.776V78.0785C86.1981 77.2168 85.1072 75.368 85.1072 73.2263C85.1072 70.2611 87.1983 67.8573 89.7777 67.8573C92.3572 67.8573 94.4482 70.2611 94.4482 73.2263C94.4482 75.368 93.3573 77.2169 91.7793 78.0786L91.7793 95.0001H113.13C115.996 95.0001 118.319 92.6767 118.319 89.8106V42.772C118.319 39.9059 115.996 37.5825 113.13 37.5825H66.4248Z" fill="#FF613C"/>
<path d="M17.0941 14.7502H1.12092V9.67496H3.20708C3.26936 9.92405 3.40428 10.1939 3.61186 10.4845C3.81944 10.7544 4.06853 11.0138 4.35914 11.2629C4.67051 11.4913 4.99226 11.6885 5.32438 11.8545C5.67727 11.9998 6.00939 12.0829 6.32076 12.1036L6.72554 11.4809C5.85371 11.3356 5.15832 11.0242 4.63937 10.5468C4.12043 10.0486 3.86096 9.52965 3.86096 8.98995V7.90016H14.3229V9.67496H17.0941V14.7502ZM17.9036 28.1079V9.05222H26.2794V14.1586H28.6458V21.5069H26.2794V26.6756C25.7397 26.904 25.1066 27.1115 24.3801 27.2984C23.6743 27.4852 22.9374 27.6512 22.1694 27.7965C21.4013 27.9211 20.6437 28.0145 19.8964 28.0768C19.1699 28.139 18.5056 28.1494 17.9036 28.1079ZM1.12092 20.4171C1.12092 19.6491 1.24547 18.9537 1.49456 18.331C1.76442 17.7082 2.21071 17.1789 2.83344 16.743C3.45618 16.2863 4.28649 15.9334 5.32438 15.6843C6.36227 15.4353 7.65964 15.3107 9.21647 15.3107C10.7733 15.3107 12.0707 15.4353 13.1086 15.6843C14.1465 15.9334 14.9768 16.2863 15.5995 16.743C16.243 17.1789 16.6893 17.7082 16.9384 18.331C17.2082 18.9537 17.3432 19.6491 17.3432 20.4171C17.3432 21.1644 17.2082 21.8494 16.9384 22.4722C16.6893 23.0741 16.243 23.6035 15.5995 24.0601C14.9768 24.496 14.1465 24.8385 13.1086 25.0876C12.0707 25.3367 10.7733 25.4613 9.21647 25.4613C7.65964 25.4613 6.36227 25.3367 5.32438 25.0876C4.28649 24.8385 3.45618 24.496 2.83344 24.0601C2.21071 23.6242 1.76442 23.0949 1.49456 22.4722C1.24547 21.8494 1.12092 21.1644 1.12092 20.4171ZM6.13394 19.016L5.57348 19.8567C6.61137 20.3341 7.73229 20.687 8.93624 20.9153C10.1402 21.1437 11.3338 21.2578 12.517 21.2578V20.3237C11.3338 20.3237 10.2025 20.1992 9.12306 19.9501C8.06442 19.701 7.06804 19.3896 6.13394 19.016ZM1.61911 26.084H10.6488C10.6488 26.8936 11.0535 27.5786 11.8631 28.139C12.6727 28.6995 13.887 29.0109 15.5061 29.0731C17.4781 29.1354 19.3774 29.0835 21.2041 28.9175C23.0308 28.7306 24.7226 28.3259 26.2794 27.7031V33.6502C25.3661 33.8993 24.4839 34.1069 23.6328 34.273C22.7817 34.4598 21.8995 34.6051 20.9862 34.7089C20.0936 34.8334 19.1387 34.9165 18.1216 34.958C17.1252 35.0203 16.0043 35.0514 14.7588 35.0514C12.4547 35.0514 10.4204 34.9269 8.65601 34.6778C6.8916 34.4287 5.43855 33.972 4.29687 33.3077C3.17595 32.6435 2.37677 31.7301 1.89934 30.5677C1.44267 29.4053 1.34926 27.9107 1.61911 26.084ZM40.1951 26.4265C40.4857 26.3227 40.7452 26.1671 40.9735 25.9595C41.2226 25.7311 41.4302 25.4198 41.5962 25.0254C41.7623 24.6102 41.8869 24.1016 41.9699 23.4997C42.0737 22.8769 42.1256 22.1193 42.1256 21.2267V16.8675C41.8557 16.9298 41.5962 16.9817 41.3472 17.0232C41.0981 17.0647 40.8178 17.0855 40.5065 17.0855V9.05222H48.9445V22.9703C48.9445 25.1499 48.7162 26.9766 48.2595 28.4504C47.8028 29.9242 47.1697 31.1074 46.3602 32C45.5714 32.9133 44.6477 33.5672 43.589 33.9616C42.5304 34.356 41.399 34.574 40.1951 34.6155V26.4265ZM31.3211 26.4265C31.5287 26.3227 31.7259 26.1671 31.9127 25.9595C32.1203 25.7311 32.2967 25.4198 32.442 25.0254C32.5874 24.6102 32.7015 24.1016 32.7846 23.4997C32.8883 22.8769 32.9402 22.1193 32.9402 21.2267V16.8675C32.6704 16.9298 32.4109 16.9817 32.1618 17.0232C31.9127 17.0647 31.6325 17.0855 31.3211 17.0855V9.05222H39.7592V22.9703C39.7592 25.1499 39.5308 26.9766 39.0742 28.4504C38.6175 29.9242 38.0051 31.1074 37.2371 32C36.4691 32.9133 35.5661 33.5672 34.5282 33.9616C33.5111 34.356 32.442 34.574 31.3211 34.6155V26.4265ZM49.972 34.6155V9.05222H57.7251V34.6155H49.972Z" fill="#145044"/>
<path fill-rule="evenodd" clip-rule="evenodd" d="M6.22754 37.5825C3.36148 37.5825 1.03809 39.9059 1.03809 42.772V89.8106C1.03809 92.6767 3.36149 95.0001 6.22755 95.0001H52.9326C55.7987 95.0001 58.1221 92.6767 58.1221 89.8106V68.3046H40.8543C39.9977 69.8918 38.1595 70.9893 36.0301 70.9893C33.0822 70.9893 30.6924 68.886 30.6924 66.2915C30.6924 63.6969 33.0822 61.5937 36.0301 61.5937C38.1593 61.5937 39.9973 62.6909 40.854 64.2779H58.1221V42.772C58.1221 39.9059 55.7987 37.5825 52.9326 37.5825H6.22754Z" fill="#145044"/>
</svg>
