<svg width="175" height="55" viewBox="0 0 175 55" fill="none" xmlns="http://www.w3.org/2000/svg">
<path fill-rule="evenodd" clip-rule="evenodd" d="M65.1895 0C62.3234 0 60 2.3234 60 5.18946V49.8105C60 52.6766 62.3234 55 65.1895 55H109.811C112.677 55 115 52.6766 115 49.8105V5.18946C115 2.3234 112.677 0 109.811 0H65.1895ZM95 20H80V35H95V20Z" fill="#FF613C"/>
<path fill-rule="evenodd" clip-rule="evenodd" d="M24 0H5.18946C2.3234 0 0 2.3234 0 5.18946V45H31V55H49.8105C52.6766 55 55 52.6766 55 49.8105V5.18946C55 2.3234 52.6766 0 49.8105 0H31V21H24V0Z" fill="#145044"/>
<path fill-rule="evenodd" clip-rule="evenodd" d="M144 0H125.189C122.323 0 120 2.3234 120 5.18946V45H151V55H169.811C172.677 55 175 52.6766 175 49.8105V5.18946C175 2.3234 172.677 0 169.811 0H151V21H144V0Z" fill="#FFC01E"/>
</svg>
