<svg width="24" height="24" viewBox="0 0 24 24" fill="none" xmlns="http://www.w3.org/2000/svg">
<path d="M6.825 2C3.33176 2 0.5 4.87217 0.5 8.41631C0.5 12.1308 2.58552 15.6352 6.03437 18.8434C7.21151 19.9377 8.47893 20.8978 9.73588 21.7599C10.1764 22.0609 10.5885 22.3339 10.9579 22.5614C11.183 22.7002 11.3315 22.8005 11.425 22.853C11.7723 23.049 12.2277 23.049 12.575 22.853C12.6685 22.8005 12.817 22.7002 13.0421 22.5614C13.4115 22.3339 13.8236 22.0609 14.2641 21.7599C15.5211 20.8978 16.7885 19.9377 17.9656 18.8434C21.4145 15.6352 23.5 12.1308 23.5 8.41631C23.5 4.87217 20.6682 2 17.175 2C15.191 2 13.254 3.09662 12.0359 4.6972C10.8482 3.06862 8.91788 2 6.825 2ZM6.825 4.3332C8.22098 4.3332 9.52462 5.05184 10.275 6.15545C10.3479 6.26278 10.9228 7.12022 11.0296 7.28588C11.4746 7.97767 12.4672 7.99868 12.9344 7.32205C13.048 7.15756 13.6463 6.30359 13.725 6.19276C14.5083 5.08216 15.8792 4.3332 17.175 4.3332C19.3979 4.3332 21.2 6.16127 21.2 8.41631C21.2 11.3363 19.4043 14.2843 16.3844 17.0935C15.2974 18.1038 14.1391 19.0254 12.9704 19.8268C12.617 20.0695 12.3018 20.2585 12 20.4463C11.6982 20.2585 11.383 20.0695 11.0296 19.8268C9.86089 19.0254 8.7026 18.1038 7.61562 17.0935C4.59572 14.2843 2.8 11.3363 2.8 8.41631C2.8 6.16127 4.60205 4.3332 6.825 4.3332Z" fill="#FEFEFE"/>
</svg>
