<svg width="98" height="48" viewBox="0 0 98 48" fill="none" xmlns="http://www.w3.org/2000/svg">
<path d="M28.1549 12.5796H0.911796V3.9234H4.46986C4.57607 4.34825 4.80619 4.80849 5.16023 5.30414C5.51427 5.76439 5.93911 6.20694 6.43476 6.63178C6.96582 7.02122 7.51457 7.35755 8.08103 7.64078C8.68289 7.88861 9.24935 8.03022 9.7804 8.06562L10.4708 7.00352C8.98382 6.75569 7.7978 6.22464 6.91271 5.41036C6.02762 4.56067 5.58507 3.67558 5.58507 2.75508V0.896391H23.4285V3.9234H28.1549V12.5796ZM29.5356 35.3618V2.86129H43.821V11.5706H47.857V24.1035H43.821V32.919C42.9005 33.3084 41.8207 33.6624 40.5816 33.9811C39.3778 34.2997 38.121 34.5829 36.8111 34.8308C35.5011 35.0432 34.2089 35.2025 32.9344 35.3087C31.6952 35.4149 30.5623 35.4326 29.5356 35.3618ZM0.911796 22.2448C0.911796 20.9348 1.12422 19.7488 1.54906 18.6867C2.00931 17.6246 2.77049 16.7218 3.83259 15.9783C4.8947 15.1995 6.31085 14.5976 8.08103 14.1727C9.85121 13.7479 12.0639 13.5355 14.7192 13.5355C17.3745 13.5355 19.5872 13.7479 21.3574 14.1727C23.1276 14.5976 24.5437 15.1995 25.6058 15.9783C26.7033 16.7218 27.4645 17.6246 27.8894 18.6867C28.3496 19.7488 28.5797 20.9348 28.5797 22.2448C28.5797 23.5193 28.3496 24.6876 27.8894 25.7497C27.4645 26.7764 26.7033 27.6792 25.6058 28.4581C24.5437 29.2016 23.1276 29.7857 21.3574 30.2106C19.5872 30.6354 17.3745 30.8479 14.7192 30.8479C12.0639 30.8479 9.85121 30.6354 8.08103 30.2106C6.31085 29.7857 4.8947 29.2016 3.83259 28.4581C2.77049 27.7146 2.00931 26.8118 1.54906 25.7497C1.12422 24.6876 0.911796 23.5193 0.911796 22.2448ZM9.46177 19.855L8.50587 21.2889C10.2761 22.1032 12.1879 22.705 14.2413 23.0945C16.2947 23.4839 18.3304 23.6786 20.3484 23.6786V22.0855C18.3304 22.0855 16.4009 21.873 14.5599 21.4482C12.7543 21.0234 11.0549 20.4923 9.46177 19.855ZM1.76148 31.91H17.1621C17.1621 33.2907 17.8524 34.459 19.2332 35.4149C20.6139 36.3708 22.685 36.9019 25.4465 37.0081C28.8099 37.1143 32.0493 37.0258 35.1648 36.7426C38.2803 36.4239 41.1657 35.7336 43.821 34.6714V44.8146C42.2632 45.2394 40.7586 45.5935 39.307 45.8767C37.8555 46.1953 36.3508 46.4432 34.7931 46.6202C33.2707 46.8326 31.6421 46.9742 29.9074 47.045C28.208 47.1512 26.2962 47.2043 24.172 47.2043C20.2422 47.2043 16.7726 46.9919 13.7633 46.5671C10.754 46.1422 8.27575 45.3633 6.32855 44.2304C4.41675 43.0975 3.05372 41.5398 2.23943 39.5571C1.46055 37.5745 1.30124 35.0255 1.76148 31.91ZM67.555 32.4941C68.0506 32.3171 68.4932 32.0516 68.8826 31.6975C69.3074 31.3081 69.6615 30.7771 69.9447 30.1044C70.2279 29.3963 70.4404 28.5289 70.582 27.5022C70.759 26.4401 70.8475 25.1479 70.8475 23.6255V16.1908C70.3873 16.297 69.9447 16.3855 69.5199 16.4563C69.095 16.5271 68.6171 16.5625 68.086 16.5625V2.86129H82.4776V26.5994C82.4776 30.3168 82.0882 33.4323 81.3093 35.946C80.5304 38.4596 79.4506 40.4776 78.0698 42C76.7245 43.5578 75.149 44.673 73.3435 45.3456C71.5379 46.0183 69.6084 46.39 67.555 46.4609V32.4941ZM52.4199 32.4941C52.774 32.3171 53.1103 32.0516 53.4289 31.6975C53.783 31.3081 54.0839 30.7771 54.3317 30.1044C54.5795 29.3963 54.7743 28.5289 54.9159 27.5022C55.0929 26.4401 55.1814 25.1479 55.1814 23.6255V16.1908C54.7212 16.297 54.2786 16.3855 53.8538 16.4563C53.4289 16.5271 52.951 16.5625 52.4199 16.5625V2.86129H66.8115V26.5994C66.8115 30.3168 66.4221 33.4323 65.6432 35.946C64.8643 38.4596 63.8199 40.4776 62.51 42C61.2 43.5578 59.66 44.673 57.8898 45.3456C56.155 46.0183 54.3317 46.39 52.4199 46.4609V32.4941ZM84.2301 46.4609V2.86129H97.4533V46.4609H84.2301Z" fill="#145044"/>
</svg>
