<svg width="24" height="22" viewBox="0 0 24 22" fill="none" xmlns="http://www.w3.org/2000/svg">
<path d="M21.79 9.94721C22.0506 10.236 22.1949 10.6111 22.1949 11.0001C22.1949 11.389 22.0506 11.7642 21.79 12.0529C20.14 13.8286 16.3843 17.2858 12 17.2858C7.61575 17.2858 3.86004 13.8286 2.21004 12.0529C1.94943 11.7642 1.80518 11.389 1.80518 11.0001C1.80518 10.6111 1.94943 10.236 2.21004 9.94721C3.86004 8.1715 7.61575 4.71436 12 4.71436C16.3843 4.71436 20.14 8.1715 21.79 9.94721Z" stroke="#145044" stroke-width="2" stroke-linecap="round" stroke-linejoin="round"/>
<path d="M11.9998 14.1429C13.7355 14.1429 15.1426 12.7358 15.1426 11C15.1426 9.26428 13.7355 7.85718 11.9998 7.85718C10.264 7.85718 8.85693 9.26428 8.85693 11C8.85693 12.7358 10.264 14.1429 11.9998 14.1429Z" stroke="#145044" stroke-width="2" stroke-linecap="round" stroke-linejoin="round"/>
</svg>
