<svg xmlns="http://www.w3.org/2000/svg" width="18" height="27" viewBox="0 0 18 27" fill="none">
  <path fill-rule="evenodd" clip-rule="evenodd" d="M3 9.99308C1.25221 9.28707 0 7.38209 0 5.14286C0 2.30254 2.01472 0 4.5 0C6.98528 0 9 2.30254 9 5.14286C9 7.38209 7.74779 9.28707 6 9.99308L6 25.5C6 26.3284 5.32843 27 4.5 27C3.67157 27 3 26.3284 3 25.5L3 9.99308ZM15 1C15 0.447715 14.5523 0 14 0C13.4477 0 13 0.447715 13 0.999999L13 26C13 26.5523 13.4477 27 14 27C14.5523 27 15 26.5523 15 26L15 1ZM17 0C17.5523 0 18 0.447715 18 1L18 26C18 26.5523 17.5523 27 17 27C16.4477 27 16 26.5523 16 26L16 0.999999C16 0.447715 16.4477 0 17 0Z" fill="#BFBFBF"/>
</svg>