<svg width="24" height="24" viewBox="0 0 24 24" fill="none" xmlns="http://www.w3.org/2000/svg">
<path d="M12.25 3C13.8691 3 15.422 3.6432 16.5669 4.78811C17.7118 5.93302 18.355 7.48585 18.355 9.105C18.355 15.8931 20.8312 17.2308 21.5 17.2308H3C3.68308 17.2308 6.145 15.8788 6.145 9.105C6.145 7.48585 6.7882 5.93302 7.93311 4.78811C9.07802 3.6432 10.6309 3 12.25 3V3Z" stroke="#333333" stroke-width="2" stroke-linecap="round" stroke-linejoin="round"/>
<path d="M10.1152 19.8354C10.2382 20.308 10.5146 20.7263 10.9008 21.0249C11.2871 21.3235 11.7616 21.4855 12.2498 21.4855C12.7381 21.4855 13.2126 21.3235 13.5989 21.0249C13.9851 20.7263 14.2615 20.308 14.3845 19.8354" stroke="#333333" stroke-width="2" stroke-linecap="round" stroke-linejoin="round"/>
</svg>
