<svg width="24" height="25" viewBox="0 0 24 25" fill="none" xmlns="http://www.w3.org/2000/svg">
<g id="chat">
<path id="Vector" d="M11.9973 3.50244C10.3699 3.50295 8.77297 3.94489 7.37678 4.78119C5.9806 5.61749 4.83739 6.81684 4.06893 8.25148C3.30047 9.68613 2.93554 11.3023 3.013 12.928C3.09045 14.5537 3.6074 16.1279 4.50879 17.4829L3 21.4971L8.05236 20.5836C9.26895 21.1781 10.604 21.4903 11.9581 21.497C13.3122 21.5037 14.6503 21.2047 15.8727 20.6223C17.0951 20.0399 18.1703 19.189 19.0181 18.1332C19.8659 17.0774 20.4645 15.8438 20.7692 14.5245C21.0739 13.2051 21.0769 11.834 20.778 10.5134C20.479 9.19268 19.8858 7.95653 19.0426 6.89702C18.1994 5.83752 17.128 4.98201 15.9081 4.39425C14.6882 3.80649 13.3514 3.50164 11.9973 3.50244V3.50244Z" stroke="#333333" stroke-width="2" stroke-linecap="round" stroke-linejoin="round"/>
</g>
</svg>
