<svg xmlns="http://www.w3.org/2000/svg" xmlns:xlink="http://www.w3.org/1999/xlink" version="1.1" x="0px" y="0px" viewBox="0 0 595.28 797.5" enable-background="new 0 0 595.28 638" xml:space="preserve"><g><path fill="#145044" d="M466.5,506c-0.123-42.656-8.367-85.448-27.169-123.868c-8.237-16.833-19.741-32.439-32.305-46.27   c-5.387-5.93-11.456-11.839-18.111-16.95c17.353-13.299,32.295-30.662,44.254-48.412c13.157-19.529,18.967-44.123,18.096-67.481   c-1.54-41.302-23.596-81.171-59.304-102.477c-22.214-13.254-48.313-21.388-74.095-23.117c-19.47-1.306-40.297-5.422-58.92,1.804   c-0.1-0.031-0.193-0.073-0.294-0.103c-14.681-4.365-29.537,0.771-42.66,7.334c-11.097,5.55-21.956,12.868-31.281,21.021   c-20.009,17.494-34.029,43.857-40.416,69.408c-7.811,31.251-2.932,62.441,9.558,91.711c6.929,16.237,16.008,31.322,28.429,43.173   c-5.285,3.874-10.08,8.495-14.308,13.241c-11.639,13.065-21.046,28.207-28.932,43.777c-19.932,39.359-27.137,85.353-29.53,128.984   c-0.985,0.998-1.878,2.119-2.624,3.392c-4.734,8.082-2.057,19.331,6.278,23.943c24.206,13.396,51.204,20.299,78.363,24.534   c27.626,4.309,55.896,7.091,83.825,8.486c30.501,1.523,61.011-3.928,90.64-10.632c14.353-3.248,28.63-6.816,42.998-9.994   c3.509-0.776,7.026-1.516,10.548-2.236c1.773-0.362,3.55-0.708,5.327-1.054c0.66-0.128,1.115-0.222,1.426-0.289   c7.123-0.919,14.281-1.655,21.364-2.863c0.331-0.063,0.662-0.125,0.994-0.188c6.058-1.143,10.36-6.197,12.022-11.952   C464.234,515.702,466.515,511.083,466.5,506z M178.149,232.033c-0.077-0.308-0.143-0.618-0.217-0.926   c13.073,15.763,31.572,25.555,45.625,40.334c0.556,0.585,1.439-0.3,0.884-0.884c-14.547-15.298-33.876-25.235-47-42   c-0.034-0.043-0.073-0.063-0.11-0.093c-0.514-2.412-0.949-4.84-1.336-7.276c0.201,1.105-0.322-3.012-0.341-3.221   c-0.216-2.286-0.312-4.581-0.388-6.874c-0.001-0.049,0-0.098-0.002-0.146c15.588,12.538,30.086,26.487,43.294,41.495   c0.534,0.606,1.414-0.281,0.884-0.884c-13.466-15.3-28.276-29.473-44.201-42.208c-0.038-3.443,0.127-6.885,0.409-10.315   c0.128-1.11,0.186-1.673,0.176-1.717c0.005-0.033,0.011-0.066,0.016-0.099c16.593,12.142,31.375,26.548,46.715,40.223   c0.6,0.535,1.487-0.346,0.884-0.884c-15.546-13.858-30.525-28.46-47.375-40.721c0.043-0.25,0.077-0.502,0.122-0.752   c0.353-2.058,0.805-4.104,1.229-6.148c0.513-2.476,1.156-4.923,1.86-7.352c19.096,11.361,34.253,28.813,49.28,44.857   c0.552,0.589,1.434-0.296,0.884-0.884c-15.169-16.196-30.477-33.794-49.798-45.204c0.111-0.372,0.219-0.745,0.332-1.116   c0.576-1.891,1.232-3.756,1.899-5.617c0.128-0.358,0.895-2.285,1.304-3.347c14.64,12.9,29.328,25.747,44.379,38.167   c0.617,0.509,1.506-0.37,0.884-0.884c-15.187-12.532-30.004-25.498-44.775-38.516c1.302-2.934,2.718-5.815,4.241-8.641   c13.523,10.382,27.455,20.234,40.651,31.041c0.618,0.506,1.508-0.373,0.884-0.884c-13.287-10.88-27.318-20.794-40.928-31.255   c1.65-2.996,3.407-5.935,5.258-8.809c14.709,12.738,30.261,24.501,45.913,36.046c0.65,0.479,1.272-0.606,0.631-1.079   c-15.635-11.532-31.163-23.284-45.849-36.015c0.641-0.961,1.295-1.913,1.956-2.861c0.556-0.787,1.123-1.566,1.697-2.34   c0.056-0.07,0.101-0.126,0.163-0.204c0.597-0.75,1.209-1.487,1.831-2.216c12.331,10.559,25.315,20.335,38.571,29.715   c0.66,0.467,1.283-0.618,0.631-1.079c-13.192-9.335-26.11-19.065-38.38-29.574c1.714-1.956,3.5-3.849,5.342-5.684   c0.904-0.9,1.845-1.761,2.791-2.617c8.497,6.952,16.993,13.904,25.49,20.855c0.618,0.506,1.508-0.373,0.884-0.884   c-8.474-6.933-16.948-13.867-25.422-20.8c0.891-0.732,2.44-1.976,2.603-2.143c2.119-1.522,4.323-2.939,6.513-4.356   c8.416,7.319,16.981,14.435,26.549,20.28c0.69,0.421,1.317-0.66,0.631-1.079c-9.397-5.741-17.821-12.718-26.089-19.903   c2.689-1.747,5.422-3.421,8.195-5.033c0.828-0.481,1.666-0.946,2.508-1.401c4.945,3.434,9.919,6.827,14.755,10.417   c0.648,0.481,1.27-0.604,0.631-1.079c-4.637-3.443-9.402-6.705-14.147-9.994c0.497-0.262,0.991-0.527,1.49-0.786   c0.473-0.246,3.627-1.672,3.874-1.835c1.749-0.668,3.53-1.24,5.338-1.716c4.559,3.529,9.198,6.955,13.815,10.411   c0.646,0.484,1.268-0.603,0.631-1.079c-4.283-3.206-8.586-6.385-12.825-9.646c0.858-0.098,2.675-0.359,3.311-0.358   c0.041,0.003,0.066,0.004,0.105,0.007c0.485,0.121,0.966,0.254,1.441,0.412c2.249,0.669,4.543,0.811,6.762,0.519   c1.373,0.473,2.805,0.764,4.26,0.89c0.063,0.053,0.125,0.105,0.188,0.158c0.324,0.27,0.719,0.15,0.934-0.097   c3.158,0.079,6.385-0.642,9.34-2.234c0.221-0.119,0.57-0.276,0.925-0.429c0.879-0.281,1.77-0.525,2.662-0.754   c0.661-0.169,1.331-0.306,2.003-0.429c-1.183,0.223,1.851-0.211,2.558-0.266c6.257-0.479,12.581-0.103,18.827,0.365   c5.496,0.412,10.974,1.031,16.461,1.533c2.749,0.251,5.501,0.429,8.247,0.716c0.375,0.039,0.683,0.07,0.938,0.096   c0.3,0.05,0.719,0.117,1.308,0.207c2.258,0.345,4.5,0.782,6.738,1.233c6.608,1.332,13.088,3.246,19.446,5.47   c1.588,0.556,3.156,1.162,4.726,1.768c0.537,0.208,0.923,0.354,1.2,0.458c0.232,0.102,0.514,0.225,0.861,0.376   c3.67,1.592,7.26,3.363,10.818,5.188c4.685,2.404,9.144,5.111,13.415,8.175c0.526,0.4,1.208,0.918,1.456,1.122   c0.993,0.815,1.952,1.669,2.911,2.523c2.234,1.989,4.337,4.12,6.382,6.301c1.393,1.484,2.707,3.039,3.998,4.612   c0.402,0.517,1.124,1.437,1.354,1.753c0.753,1.035,1.469,2.096,2.184,3.157c3.104,4.604,5.761,9.496,8.125,14.514   c0.159,0.338,0.582,1.315,0.851,1.932c0.282,0.722,0.559,1.445,0.831,2.17c0.903,2.4,1.683,4.846,2.419,7.301   c0.736,2.457,1.347,4.948,1.913,7.448c0.283,1.25,0.524,2.509,0.764,3.768c0.105,0.553,0.415,2.606,0.55,3.424   c0.504,4.502,0.695,9.036,0.647,13.565c-0.026,2.555-0.192,5.107-0.404,7.652c-0.068,0.819-0.158,1.636-0.253,2.453   c0.282-2.51-0.376,2.12-0.541,3.01c-0.936,5.04-2.355,9.978-4.068,14.804c-0.224,0.631-0.462,1.256-0.705,1.88   c0.354-0.925-0.729,1.668-1.009,2.267c-1.286,2.754-2.764,5.414-4.313,8.026c-1.347,2.271-2.84,4.451-4.376,6.596   c-0.176,0.245-1.24,1.638-1.629,2.152c-0.761,0.97-1.523,1.938-2.292,2.902c-4.237,5.312-8.688,10.448-13.346,15.394   c-4.225,4.485-8.716,8.709-13.409,12.698c-0.964,0.819-1.952,1.611-2.941,2.399c1.729-1.391-1.636,1.177-1.967,1.415   c-2.899,2.088-5.925,3.992-9,5.808c-2.663,1.573-5.42,2.977-8.205,4.318c-0.237,0.114-2.198,0.957-2.737,1.203   c-1.091,0.422-2.188,0.826-3.289,1.221c-3.544,1.272-7.179,2.271-10.832,3.173c-1.832,0.453-3.686,0.811-5.537,1.169   c-1.082,0.2-2.168,0.378-3.255,0.547c-0.304,0.035-0.722,0.083-1.256,0.146c-15.121,1.693-30.433,0.225-45.459-1.657   c0.047,0.006-4.187-0.55-3.599-0.466c-1.558-0.211-3.115-0.424-4.672-0.637c-2.793-0.381-5.588-0.757-8.382-1.132   c3.629,0.487-1.151-0.242-1.553-0.307c-6.021-0.971-12.004-2.15-17.926-3.607c-4.011-0.987-7.966-2.181-11.858-3.561   c0.148-0.268,0.126-0.625-0.22-0.815c-14.992-8.253-24.185-23.379-36.955-34.189c-0.658-1.271-1.31-2.545-1.947-3.827   c-0.775-1.56-1.507-3.141-2.238-4.722c-0.019-0.042-1.058-2.455-1.33-3.054C182.116,245.963,179.907,239.055,178.149,232.033z    M208.505,288.66c-2.064-1.753-3.98-3.672-5.841-5.637c-0.962-1.016-1.868-2.083-2.773-3.149c-0.157-0.185-0.288-0.337-0.405-0.473   c-0.112-0.156-0.243-0.335-0.402-0.551c-2.149-2.924-4.039-6.031-5.824-9.187c-0.432-0.763-0.837-1.541-1.255-2.312   c10.892,9.942,19.465,22.708,32.097,30.656c-0.156-0.071-0.337-0.154-0.559-0.254c-1.179-0.531-2.334-1.113-3.489-1.696   c-2.693-1.359-5.274-2.925-7.795-4.579c-0.615-0.403-1.217-0.826-1.814-1.255C211.331,290.85,208.988,289.07,208.505,288.66z    M144.029,501.366c0.246-1.093,0.409-2.218,0.471-3.366c0.133-2.434,0.285-4.865,0.452-7.295   c5.426,6.311,11.564,12.26,18.175,17.167c-5.736-1.631-11.392-3.525-16.963-5.647C145.974,502.152,144.829,501.687,144.029,501.366   z M403.19,502.993c-13.847,2.958-27.592,6.372-41.382,9.58c-13.617,3.168-27.295,6.075-41.116,8.208   c-0.11,0.017-2.647,0.373-3.308,0.475c-1.411,0.178-2.822,0.349-4.236,0.511c-3.522,0.402-7.055,0.706-10.589,0.972   c-7.82,0.587-15.667,0.723-23.506,0.529c-13.078-0.321-26.189-1.846-39.217-2.989c-6.425-0.563-12.845-1.181-19.259-1.865   c-3.252-0.348-6.501-0.728-9.748-1.124c-1.282-0.156-2.563-0.324-3.843-0.491c0.988,0.117-3.969-0.573-4.526-0.655   c-12.055-1.787-24.026-4.15-35.8-7.299c-7.921-5.415-15.266-12.445-21.577-19.917c0.396-5.476,0.892-10.942,1.488-16.4   c12.581,10.325,24.555,21.381,34.987,33.916c0.516,0.62,1.396-0.27,0.884-0.885c-10.632-12.775-22.862-24.008-35.705-34.503   c0.144-1.277,0.276-2.557,0.432-3.833c0.075-0.58,0.13-1.006,0.167-1.302c0.132-0.936,0.265-1.872,0.404-2.807   c0.199-1.356,0.412-2.71,0.631-4.063c15.901,12.437,30.204,26.86,45.187,40.392c0.596,0.538,1.483-0.343,0.884-0.885   c-15.188-13.717-29.687-28.339-45.84-40.903c0.178-1.072,0.356-2.145,0.54-3.216c0.438-2.549,0.915-5.091,1.42-7.627   c15.473,13.944,30.659,28.248,48.123,39.729c0.676,0.444,1.301-0.639,0.631-1.08c-17.6-11.57-32.867-26.022-48.465-40.066   c0.438-2.15,0.89-4.298,1.361-6.44c0.699-3.181,1.469-6.344,2.271-9.499c15.968,14.397,31.085,29.754,48.075,42.988   c0.628,0.488,1.519-0.39,0.884-0.885c-17.177-13.379-32.44-28.929-48.604-43.463c1.013-3.915,2.084-7.815,3.232-11.693   c17.256,17.681,36.374,33.401,55.487,49.041c0.618,0.506,1.508-0.374,0.884-0.885c-19.29-15.783-38.583-31.65-55.963-49.53   c0.711-2.369,1.439-4.733,2.193-7.088c0.479-1.499,0.979-2.991,1.482-4.481c19.086,15.393,36.939,32.299,56.531,47.082   c0.644,0.485,1.266-0.601,0.631-1.08c-19.663-14.835-37.574-31.81-56.739-47.248c0.144-0.423,0.286-0.846,0.431-1.269   c0.369-1.077,2.319-6.052,2.126-5.788c0.613-1.368,1.24-2.729,1.884-4.083c20.02,14.596,35.754,35.086,58.667,45.468   c0.728,0.329,1.364-0.747,0.631-1.08c-22.938-10.392-38.692-30.93-58.756-45.532c0.081-0.168,0.159-0.339,0.24-0.508   c1.734-3.593,3.583-7.131,5.507-10.626c17.432,14.55,32.994,32.647,54.527,40.809c0.755,0.286,1.078-0.922,0.332-1.205   c-21.391-8.107-36.91-26.205-54.249-40.695c1.362-2.444,2.753-4.872,4.191-7.271c0.086-0.144,0.178-0.283,0.265-0.426   c19.209,10.689,34.551,27.089,53.312,38.535c0.69,0.421,1.318-0.66,0.631-1.079c-18.75-11.439-34.084-27.828-53.283-38.518   c1.74-2.839,3.542-5.64,5.411-8.397c0.456-0.672,0.936-1.329,1.404-1.993c16.987,14.052,33.09,29.237,51.836,40.987   c0.685,0.43,1.312-0.652,0.631-1.079c-18.717-11.731-34.784-26.904-51.749-40.927c0.302-0.422,0.593-0.852,0.897-1.273   c0.173-0.238,0.351-0.472,0.525-0.709c0.357-0.469,1.203-1.588,1.467-1.917c1.142-1.423,2.324-2.812,3.538-4.172   c17.636,10.83,30.104,28.495,48.691,38.078c0.715,0.369,1.348-0.709,0.631-1.079c-18.503-9.54-30.939-27.101-48.46-37.943   c1.003-1.099,2.021-2.183,3.063-3.245c1.105-1.125,2.262-2.196,3.429-3.256c0.508-0.455,1.025-0.898,1.547-1.337   c14.996,9.764,26.578,24.03,40.791,34.86c0.642,0.489,1.263-0.598,0.631-1.079c-14.077-10.727-25.549-24.808-40.333-34.566   c0.851-0.576,1.716-1.129,2.596-1.659c0.56-0.337,1.962-0.969,2.829-1.364c0.471-0.138,0.947-0.259,1.423-0.376   c0.39-0.004,0.78-0.001,1.169,0.005c0.715,0.011,1.417-0.039,2.112-0.119c12.61,9.067,23.1,20.859,35.572,30.158   c0.647,0.482,1.269-0.604,0.631-1.079c-12.116-9.034-22.344-20.417-34.475-29.373c2-0.451,3.876-1.267,5.562-2.372   c3.194,1.046,6.423,1.986,9.685,2.819c8.983,6.184,16.773,14.118,23.373,22.78c0.481,0.632,1.568,0.011,1.079-0.631   c-6.08-7.979-13.138-15.365-21.2-21.361c2.067,0.485,4.141,0.946,6.228,1.362c15.532,3.095,28.165,4.544,45.094,6.369   c22.99,2.479,45.994,1.068,67.482-6.241c0.069,0.018,0.134,0.045,0.204,0.062c1.328,0.316,2.626,0.691,3.922,1.118   c0.451,0.203,1.598,0.689,2.077,0.93c3.275,1.641,6.342,3.685,9.311,5.82c0.054,0.04,0.089,0.066,0.139,0.104   c0.492,0.397,0.985,0.794,1.471,1.201c1.748,1.446,3.426,2.977,5.089,4.521c3.108,2.887,6.036,5.965,8.887,9.104   c2.618,2.882,5.104,5.882,7.525,8.929c-0.514-0.618,2.069,2.761,2.425,3.246c1.395,1.905,2.736,3.849,4.064,5.801   c4.386,6.445,8.364,13.177,11.853,20.148c1.666,3.329,3.156,6.756,4.691,10.146c0.192,0.443,0.338,0.774,0.439,1.007   c0.263,0.646,0.526,1.29,0.781,1.938c0.976,2.453,1.865,4.939,2.736,7.43c3.263,9.327,5.751,18.917,7.831,28.57   c1.063,4.932,1.948,9.9,2.753,14.88c0.077,0.48,0.654,4.466,0.709,4.727c0.307,2.394,0.58,4.791,0.836,7.19   c0.8,7.512,1.286,15.057,1.495,22.608c-1.728,0.213-3.454,0.427-5.181,0.645C418.436,499.917,410.839,501.359,403.19,502.993z"/></g></svg>