<svg width="24" height="24" viewBox="0 0 24 24" fill="none" xmlns="http://www.w3.org/2000/svg">
<path d="M9.47903 5.23467L10.0915 3.65373C10.1948 3.38605 10.3765 3.15581 10.6128 2.99316C10.8492 2.83051 11.1291 2.74304 11.416 2.74219H12.584C12.8709 2.74304 13.1508 2.83051 13.3872 2.99316C13.6235 3.15581 13.8052 3.38605 13.9085 3.65373L14.521 5.23467L16.6004 6.43107L18.2811 6.1747C18.5609 6.13671 18.8457 6.18278 19.0993 6.30704C19.3529 6.43131 19.5639 6.62817 19.7053 6.87259L20.2751 7.86959C20.421 8.11791 20.4883 8.40466 20.468 8.69199C20.4476 8.97933 20.3406 9.25374 20.1611 9.47902L19.1214 10.8036V13.1964L20.1896 14.521C20.3691 14.7462 20.4761 15.0207 20.4964 15.308C20.5168 15.5953 20.4495 15.8821 20.3035 16.1304L19.7338 17.1274C19.5924 17.3718 19.3814 17.5687 19.1278 17.6929C18.8742 17.8172 18.5894 17.8633 18.3096 17.8253L16.6289 17.5689L14.5495 18.7653L13.937 20.3463C13.8337 20.6139 13.652 20.8442 13.4157 21.0068C13.1793 21.1695 12.8993 21.2569 12.6124 21.2578H11.416C11.1291 21.2569 10.8492 21.1695 10.6128 21.0068C10.3765 20.8442 10.1948 20.6139 10.0915 20.3463L9.47903 18.7653L7.39958 17.5689L5.71894 17.8253C5.43909 17.8633 5.15427 17.8172 4.90066 17.6929C4.64706 17.5687 4.43612 17.3718 4.29466 17.1274L3.72495 16.1304C3.57896 15.8821 3.5117 15.5953 3.53204 15.308C3.55238 15.0207 3.65937 14.7462 3.83889 14.521L4.87861 13.1964V10.8036L3.8104 9.47902C3.63089 9.25374 3.5239 8.97933 3.50356 8.69199C3.48321 8.40466 3.55047 8.11791 3.69646 7.86959L4.26617 6.87259C4.40764 6.62817 4.61857 6.43131 4.87218 6.30704C5.12578 6.18278 5.4106 6.13671 5.69045 6.1747L7.3711 6.43107L9.47903 5.23467ZM9.15144 12C9.15144 12.5634 9.31851 13.1141 9.63151 13.5826C9.94452 14.051 10.3894 14.4161 10.9099 14.6317C11.4304 14.8473 12.0032 14.9037 12.5557 14.7938C13.1083 14.6839 13.6159 14.4126 14.0142 14.0142C14.4126 13.6158 14.6839 13.1083 14.7938 12.5557C14.9037 12.0032 14.8473 11.4304 14.6317 10.9099C14.4161 10.3894 14.051 9.94451 13.5826 9.63151C13.1141 9.3185 12.5634 9.15144 12 9.15144C11.2445 9.15144 10.52 9.45155 9.98577 9.98576C9.45156 10.52 9.15144 11.2445 9.15144 12V12Z" stroke="#333333" stroke-width="2" stroke-linecap="round" stroke-linejoin="round"/>
</svg>
