<svg width="24" height="24" viewBox="0 0 24 24" fill="none" xmlns="http://www.w3.org/2000/svg">
<g clip-path="url(#clip0_507_16520)">
<path d="M9.23278 19.2555L3 21L4.74518 14.7697L16.1581 3.41657C16.2871 3.2847 16.4411 3.17992 16.6112 3.10838C16.7813 3.03685 16.9639 3 17.1484 3C17.3329 3 17.5156 3.03685 17.6856 3.10838C17.8557 3.17992 18.0097 3.2847 18.1387 3.41657L20.5903 5.88102C20.7201 6.00973 20.8232 6.16286 20.8935 6.33157C20.9638 6.50029 21 6.68126 21 6.86403C21 7.0468 20.9638 7.22777 20.8935 7.39648C20.8232 7.5652 20.7201 7.71833 20.5903 7.84704L9.23278 19.2555Z" stroke="#181818" stroke-width="2" stroke-linecap="round" stroke-linejoin="round"/>
</g>
<defs>
<clipPath id="clip0_507_16520">
<rect width="24" height="24" fill="white"/>
</clipPath>
</defs>
</svg>
