<svg width="240" height="240" viewBox="0 0 240 240" fill="none" xmlns="http://www.w3.org/2000/svg">
<rect width="240" height="240" rx="16" fill="white"/>
<g clip-path="url(#clip0_1829_9189)">
<path d="M20 20H220V220H20V20Z" fill="white"/>
<path d="M20 20H76V28H20V20ZM100 20H108V28H100V20ZM116 20H124V28H116V20ZM132 20H140V28H132V20ZM148 20H156V28H148V20ZM164 20H220V28H164V20ZM20 28H28V36H20V28ZM68 28H76V36H68V28ZM84 28H92V36H84V28ZM100 28H108V36H100V28ZM132 28H156V36H132V28ZM164 28H172V36H164V28ZM212 28H220V36H212V28ZM20 36H28V44H20V36ZM36 36H60V44H36V36ZM68 36H76V44H68V36ZM116 36H124V44H116V36ZM140 36H156V44H140V36ZM164 36H172V44H164V36ZM180 36H204V44H180V36ZM212 36H220V44H212V36ZM20 44H28V52H20V44ZM36 44H60V52H36V44ZM68 44H76V52H68V44ZM84 44H108V52H84V44ZM116 44H148V52H116V44ZM164 44H172V52H164V44ZM180 44H204V52H180V44ZM212 44H220V52H212V44ZM20 52H28V60H20V52ZM36 52H60V60H36V52ZM68 52H76V60H68V52ZM92 52H100V60H92V52ZM124 52H132V60H124V52ZM148 52H156V60H148V52ZM164 52H172V60H164V52ZM180 52H204V60H180V52ZM212 52H220V60H212V52ZM20 60H28V68H20V60ZM68 60H76V68H68V60ZM84 60H100V68H84V60ZM108 60H124V68H108V60ZM132 60H148V68H132V60ZM164 60H172V68H164V60ZM212 60H220V68H212V60ZM20 68H76V76H20V68ZM84 68H92V76H84V68ZM100 68H108V76H100V68ZM116 68H124V76H116V68ZM132 68H140V76H132V68ZM148 68H156V76H148V68ZM164 68H220V76H164V68ZM92 76H116V84H92V76ZM148 76H156V84H148V76ZM20 84H60V92H20V84ZM68 84H100V92H68V84ZM108 84H140V92H108V84ZM156 84H164V92H156V84ZM172 84H180V92H172V84ZM188 84H196V92H188V84ZM204 84H212V92H204V84ZM20 92H28V100H20V92ZM36 92H44V100H36V92ZM52 92H60V100H52V92ZM76 92H84V100H76V92ZM100 92H108V100H100V92ZM116 92H132V100H116V92ZM148 92H156V100H148V92ZM172 92H180V100H172V92ZM204 92H212V100H204V92ZM20 100H36V108H20V100ZM44 100H60V108H44V100ZM68 100H76V108H68V100ZM100 100H108V108H100V100ZM140 100H148V108H140V100ZM164 100H172V108H164V100ZM188 100H196V108H188V100ZM204 100H220V108H204V100ZM20 108H44V116H20V108ZM76 108H92V116H76V108ZM108 108H116V116H108V108ZM132 108H140V116H132V108ZM148 108H172V116H148V108ZM180 108H188V116H180V108ZM212 108H220V116H212V108ZM20 116H28V124H20V116ZM68 116H76V124H68V116ZM92 116H140V124H92V116ZM156 116H172V124H156V116ZM180 116H188V124H180V116ZM196 116H220V124H196V116ZM20 124H28V132H20V124ZM44 124H68V132H44V124ZM76 124H92V132H76V124ZM108 124H124V132H108V124ZM172 124H180V132H172V124ZM188 124H196V132H188V124ZM204 124H212V132H204V124ZM20 132H28V140H20V132ZM36 132H44V140H36V132ZM52 132H60V140H52V132ZM68 132H76V140H68V132ZM92 132H100V140H92V132ZM116 132H164V140H116V132ZM172 132H196V140H172V132ZM204 132H220V140H204V132ZM20 140H28V148H20V140ZM36 140H44V148H36V140ZM76 140H84V148H76V140ZM92 140H108V148H92V140ZM116 140H124V148H116V140ZM140 140H148V148H140V140ZM172 140H188V148H172V140ZM212 140H220V148H212V140ZM20 148H28V156H20V148ZM44 148H52V156H44V148ZM60 148H92V156H60V148ZM100 148H108V156H100V148ZM124 148H140V156H124V148ZM148 148H188V156H148V148ZM196 148H204V156H196V148ZM84 156H92V164H84V156ZM108 156H116V164H108V156ZM124 156H156V164H124V156ZM180 156H196V164H180V156ZM20 164H76V172H20V164ZM84 164H108V172H84V164ZM116 164H124V172H116V164ZM148 164H156V172H148V164ZM164 164H172V172H164V164ZM180 164H188V172H180V164ZM196 164H220V172H196V164ZM20 172H28V180H20V172ZM68 172H76V180H68V172ZM100 172H108V180H100V172ZM116 172H124V180H116V172ZM132 172H140V180H132V172ZM148 172H156V180H148V172ZM180 172H196V180H180V172ZM204 172H212V180H204V172ZM20 180H28V188H20V180ZM36 180H60V188H36V180ZM68 180H76V188H68V180ZM84 180H92V188H84V180ZM100 180H108V188H100V180ZM124 180H132V188H124V180ZM140 180H188V188H140V180ZM196 180H204V188H196V180ZM20 188H28V196H20V188ZM36 188H60V196H36V188ZM68 188H76V196H68V188ZM84 188H92V196H84V188ZM100 188H116V196H100V188ZM124 188H132V196H124V188ZM148 188H172V196H148V188ZM180 188H220V196H180V188ZM20 196H28V204H20V196ZM36 196H60V204H36V196ZM68 196H76V204H68V196ZM84 196H100V204H84V196ZM124 196H156V204H124V196ZM188 196H204V204H188V196ZM212 196H220V204H212V196ZM20 204H28V212H20V204ZM68 204H76V212H68V204ZM84 204H92V212H84V204ZM100 204H108V212H100V204ZM116 204H124V212H116V204ZM140 204H156V212H140V204ZM172 204H196V212H172V204ZM212 204H220V212H212V204ZM20 212H76V220H20V212ZM84 212H108V220H84V212ZM116 212H140V220H116V212ZM156 212H164V220H156V212ZM172 212H220V220H172V212Z" fill="#145044"/>
</g>
<defs>
<clipPath id="clip0_1829_9189">
<rect width="200" height="200" fill="white" transform="translate(20 20)"/>
</clipPath>
</defs>
</svg>
