<svg width="24" height="24" viewBox="0 0 24 24" fill="none" xmlns="http://www.w3.org/2000/svg">
<g clip-path="url(#clip0_1027_25229)">
<path fill-rule="evenodd" clip-rule="evenodd" d="M9 2C6.23858 2 4 4.23858 4 7C4 9.76142 6.23858 12 9 12C11.7614 12 14 9.76142 14 7C14 4.23858 11.7614 2 9 2Z" fill="#145044"/>
<path fill-rule="evenodd" clip-rule="evenodd" d="M15.0842 12C14.3404 12 13.6344 11.8376 13 11.5462C14.2763 10.4459 15.0842 8.81731 15.0842 7C15.0842 5.18269 14.2763 3.55408 13 2.45379C13.6344 2.16244 14.3404 2 15.0842 2C16.143 2 17.1248 2.32906 17.9332 2.89049C18.3514 3.17928 18.7259 3.53207 19.0418 3.93902C19.7226 4.81603 20.0921 5.89467 20.0921 7.00488C20.0921 8.1151 19.7226 9.19373 19.0418 10.0707C18.3611 10.9478 17.4078 11.5733 16.3323 11.8486C16.2939 11.8585 16.2555 11.8659 16.2171 11.8711C15.8531 11.9554 15.4739 12 15.0842 12Z" fill="#145044"/>
<path fill-rule="evenodd" clip-rule="evenodd" d="M18.9997 19V21C18.9997 21.3644 18.9023 21.706 18.732 22.0002H22.9997V22.0001C23.552 22.0001 23.9997 21.5524 23.9997 21.0001V21V19.0001V19L18.6336 16.9361C18.8736 17.5911 18.9997 18.289 18.9997 19ZM23.9997 18.9993L18.6334 16.9356C18.3363 16.1248 17.8648 15.3797 17.2424 14.7574C16.9576 14.4726 16.6471 14.2194 16.3164 14H18.9997C20.3258 14 21.5976 14.5268 22.5353 15.4645C23.4728 16.402 23.9996 17.6735 23.9997 18.9993Z" fill="#145044"/>
<path fill-rule="evenodd" clip-rule="evenodd" d="M5 14C3.67392 14 2.40215 14.5268 1.46447 15.4645C0.526784 16.4021 0 17.6739 0 19V21C0 21.5523 0.447715 22 1 22H17C17.5523 22 18 21.5523 18 21V19C18 17.6739 17.4732 16.4021 16.5355 15.4645C15.5979 14.5268 14.3261 14 13 14H5Z" fill="#145044"/>
</g>
<defs>
<clipPath id="clip0_1027_25229">
<rect width="24" height="24" fill="white"/>
</clipPath>
</defs>
</svg>
