<svg width="24" height="24" viewBox="0 0 24 24" fill="none" xmlns="http://www.w3.org/2000/svg">
<g clip-path="url(#clip0_1027_22012)">
<mask id="path-1-inside-1_1027_22012" fill="white">
<path fill-rule="evenodd" clip-rule="evenodd" d="M11.5395 1.40799C11.8104 1.19734 12.1896 1.19734 12.4605 1.40799L21.4605 8.40799C21.6431 8.55008 21.75 8.76856 21.75 9V20C21.75 20.7293 21.4603 21.4288 20.9445 21.9445C20.4288 22.4603 19.7293 22.75 19 22.75H15C14.5858 22.75 14.25 22.4142 14.25 22V15H9.75V22C9.75 22.4142 9.41421 22.75 9 22.75H5C4.27065 22.75 3.57118 22.4603 3.05546 21.9445C2.53973 21.4288 2.25 20.7293 2.25 20V9C2.25 8.76856 2.35685 8.55008 2.53954 8.40799L11.5395 1.40799Z"/>
</mask>
<path d="M12.4605 1.40799L13.6883 -0.170719L13.6883 -0.170719L12.4605 1.40799ZM11.5395 1.40799L10.3117 -0.170719L10.3117 -0.170719L11.5395 1.40799ZM21.4605 8.40799L22.6883 6.82928L22.6883 6.82928L21.4605 8.40799ZM20.9445 21.9445L22.3588 23.3588L22.3588 23.3588L20.9445 21.9445ZM14.25 15H16.25V13H14.25V15ZM9.75 15V13H7.75V15H9.75ZM3.05546 21.9445L1.64124 23.3588L1.64124 23.3588L3.05546 21.9445ZM2.53954 8.40799L1.31166 6.82928H1.31166L2.53954 8.40799ZM13.6883 -0.170719C12.6953 -0.943094 11.3047 -0.943094 10.3117 -0.170719L12.7674 2.98669C12.316 3.33777 11.684 3.33777 11.2326 2.98669L13.6883 -0.170719ZM22.6883 6.82928L13.6883 -0.170719L11.2326 2.98669L20.2326 9.98669L22.6883 6.82928ZM23.75 9C23.75 8.15137 23.3582 7.35028 22.6883 6.82928L20.2326 9.98669C19.9281 9.74987 19.75 9.38574 19.75 9H23.75ZM23.75 20V9H19.75V20H23.75ZM22.3588 23.3588C23.2496 22.468 23.75 21.2598 23.75 20H19.75C19.75 20.1989 19.671 20.3897 19.5303 20.5303L22.3588 23.3588ZM19 24.75C20.2598 24.75 21.468 24.2496 22.3588 23.3588L19.5303 20.5303C19.3897 20.671 19.1989 20.75 19 20.75V24.75ZM15 24.75H19V20.75H15V24.75ZM12.25 22C12.25 23.5188 13.4812 24.75 15 24.75V20.75C15.6904 20.75 16.25 21.3096 16.25 22H12.25ZM16.25 22V15H12.25V22H16.25ZM9.75 17H14.25V13H9.75V17ZM7.75 15V22H11.75V15H7.75ZM9 24.75C10.5188 24.75 11.75 23.5188 11.75 22H7.75C7.75 21.3096 8.30964 20.75 9 20.75V24.75ZM5 24.75H9V20.75H5V24.75ZM1.64124 23.3588C2.53204 24.2496 3.74022 24.75 5 24.75V20.75C4.80109 20.75 4.61032 20.671 4.46967 20.5303L1.64124 23.3588ZM0.25 20C0.25 21.2598 0.750445 22.468 1.64124 23.3588L4.46967 20.5303C4.32902 20.3897 4.25 20.1989 4.25 20H0.25ZM0.25 9V20H4.25V9H0.25ZM1.31166 6.82928C0.6418 7.35029 0.25 8.15138 0.25 9H4.25C4.25 9.38574 4.07191 9.74987 3.76743 9.98669L1.31166 6.82928ZM10.3117 -0.170719L1.31166 6.82928L3.76743 9.98669L12.7674 2.98669L10.3117 -0.170719Z" fill="#A3A3A3" mask="url(#path-1-inside-1_1027_22012)"/>
</g>
<defs>
<clipPath id="clip0_1027_22012">
<rect width="24" height="24" fill="white"/>
</clipPath>
</defs>
</svg>
