<svg width="154" height="154" viewBox="0 0 154 154" fill="none" xmlns="http://www.w3.org/2000/svg">
<g filter="url(#filter0_d_983_19192)">
<g clip-path="url(#clip0_983_19192)">
<rect x="6" y="5" width="142" height="142" rx="5" fill="white"/>
<path d="M19.8535 20.5854H44.0974ZM51.0242 20.5854H54.4877ZM75.2681 20.5854H78.7316ZM85.6584 20.5854H102.975ZM109.902 20.5854H134.146ZM19.8535 24.0489H23.3169ZM40.634 24.0489H44.0974ZM54.4877 24.0489H57.9511ZM71.8047 24.0489H78.7316ZM82.195 24.0489H85.6584ZM89.1218 24.0489H96.0486ZM109.902 24.0489H113.366ZM130.683 24.0489H134.146ZM19.8535 27.5123H23.3169ZM26.7803 27.5123H37.1706ZM40.634 27.5123H44.0974ZM47.5608 27.5123H51.0242ZM57.9511 27.5123H64.8779ZM68.3413 27.5123H75.2681ZM89.1218 27.5123H96.0486ZM99.512 27.5123H102.975ZM109.902 27.5123H113.366ZM116.829 27.5123H127.219ZM130.683 27.5123H134.146ZM19.8535 30.9757H23.3169ZM26.7803 30.9757H37.1706ZM40.634 30.9757H44.0974ZM47.5608 30.9757H51.0242ZM54.4877 30.9757H61.4145ZM71.8047 30.9757H75.2681ZM82.195 30.9757H85.6584ZM92.5852 30.9757H96.0486ZM99.512 30.9757H102.975ZM109.902 30.9757H113.366ZM116.829 30.9757H127.219ZM130.683 30.9757H134.146ZM19.8535 34.4391H23.3169ZM26.7803 34.4391H37.1706ZM40.634 34.4391H44.0974ZM47.5608 34.4391H61.4145ZM64.8779 34.4391H78.7316ZM89.1218 34.4391H92.5852ZM99.512 34.4391H102.975ZM109.902 34.4391H113.366ZM116.829 34.4391H127.219ZM130.683 34.4391H134.146ZM19.8535 37.9025H23.3169ZM40.634 37.9025H44.0974ZM47.5608 37.9025H71.8047ZM78.7316 37.9025H82.195ZM85.6584 37.9025H89.1218ZM92.5852 37.9025H96.0486ZM102.975 37.9025H106.439ZM109.902 37.9025H113.366ZM130.683 37.9025H134.146ZM19.8535 41.3659H44.0974ZM47.5608 41.3659H51.0242ZM54.4877 41.3659H57.9511ZM61.4145 41.3659H64.8779ZM68.3413 41.3659H71.8047ZM75.2681 41.3659H78.7316ZM82.195 41.3659H85.6584ZM89.1218 41.3659H92.5852ZM96.0486 41.3659H99.512ZM102.975 41.3659H106.439ZM109.902 41.3659H134.146ZM47.5608 44.8294H51.0242ZM54.4877 44.8294H61.4145ZM75.2681 44.8294H78.7316ZM85.6584 44.8294H99.512ZM102.975 44.8294H106.439ZM19.8535 48.2928H23.3169ZM26.7803 48.2928H44.0974ZM54.4877 48.2928H61.4145ZM64.8779 48.2928H71.8047ZM78.7316 48.2928H89.1218ZM102.975 48.2928H106.439ZM109.902 48.2928H127.219ZM19.8535 51.7562H23.3169ZM26.7803 51.7562H33.7072ZM47.5608 51.7562H51.0242ZM57.9511 51.7562H61.4145ZM64.8779 51.7562H68.3413ZM75.2681 51.7562H92.5852ZM99.512 51.7562H102.975ZM109.902 51.7562H116.829ZM120.293 51.7562H127.219ZM130.683 51.7562H134.146ZM19.8535 55.2196H26.7803ZM33.7072 55.2196H47.5608ZM51.0242 55.2196H54.4877ZM57.9511 55.2196H75.2681ZM78.7316 55.2196H82.195ZM89.1218 55.2196H92.5852ZM96.0486 55.2196H99.512ZM102.975 55.2196H106.439ZM109.902 55.2196H113.366ZM116.829 55.2196H120.293ZM123.756 55.2196H127.219ZM19.8535 58.683H26.7803ZM30.2438 58.683H40.634ZM47.5608 58.683H51.0242ZM54.4877 58.683H61.4145ZM64.8779 58.683H68.3413ZM71.8047 58.683H75.2681ZM78.7316 58.683H85.6584ZM106.439 58.683H109.902ZM116.829 58.683H130.683ZM26.7803 62.1464H47.5608ZM51.0242 62.1464H54.4877ZM61.4145 62.1464H64.8779ZM68.3413 62.1464H71.8047ZM75.2681 62.1464H78.7316ZM85.6584 62.1464H102.975ZM106.439 62.1464H109.902ZM113.366 62.1464H123.756ZM130.683 62.1464H134.146ZM19.8535 65.6098H23.3169ZM26.7803 65.6098H33.7072ZM37.1706 65.6098H40.634ZM47.5608 65.6098H51.0242ZM54.4877 65.6098H57.9511ZM61.4145 65.6098H68.3413ZM71.8047 65.6098H75.2681ZM78.7316 65.6098H85.6584ZM99.512 65.6098H102.975ZM109.902 65.6098H113.366ZM120.293 65.6098H123.756ZM127.219 65.6098H134.146ZM26.7803 69.0733H30.2438ZM37.1706 69.0733H47.5608ZM61.4145 69.0733H78.7316ZM89.1218 69.0733H99.512ZM106.439 69.0733H116.829ZM127.219 69.0733H130.683ZM37.1706 72.5367H40.634ZM47.5608 72.5367H57.9511ZM64.8779 72.5367H75.2681ZM92.5852 72.5367H99.512ZM102.975 72.5367H113.366ZM116.829 72.5367H127.219ZM26.7803 76.0001H30.2438ZM33.7072 76.0001H44.0974ZM51.0242 76.0001H54.4877ZM61.4145 76.0001H75.2681ZM78.7316 76.0001H85.6584ZM96.0486 76.0001H99.512ZM102.975 76.0001H109.902ZM113.366 76.0001H120.293ZM130.683 76.0001H134.146ZM23.3169 79.4635H26.7803ZM33.7072 79.4635H40.634ZM54.4877 79.4635H57.9511ZM61.4145 79.4635H64.8779ZM75.2681 79.4635H78.7316ZM85.6584 79.4635H102.975ZM109.902 79.4635H116.829ZM120.293 79.4635H127.219ZM130.683 79.4635H134.146ZM23.3169 82.9269H30.2438ZM33.7072 82.9269H37.1706ZM40.634 82.9269H47.5608ZM68.3413 82.9269H78.7316ZM82.195 82.9269H85.6584ZM92.5852 82.9269H96.0486ZM102.975 82.9269H109.902ZM113.366 82.9269H120.293ZM123.756 82.9269H130.683ZM23.3169 86.3903H30.2438ZM47.5608 86.3903H51.0242ZM54.4877 86.3903H57.9511ZM61.4145 86.3903H78.7316ZM85.6584 86.3903H99.512ZM102.975 86.3903H106.439ZM109.902 86.3903H134.146ZM23.3169 89.8537H30.2438ZM40.634 89.8537H44.0974ZM57.9511 89.8537H68.3413ZM82.195 89.8537H85.6584ZM92.5852 89.8537H96.0486ZM102.975 89.8537H109.902ZM113.366 89.8537H123.756ZM130.683 89.8537H134.146ZM19.8535 93.3172H23.3169ZM26.7803 93.3172H37.1706ZM57.9511 93.3172H61.4145ZM64.8779 93.3172H68.3413ZM71.8047 93.3172H78.7316ZM89.1218 93.3172H102.975ZM106.439 93.3172H113.366ZM120.293 93.3172H123.756ZM130.683 93.3172H134.146ZM19.8535 96.7806H23.3169ZM26.7803 96.7806H30.2438ZM33.7072 96.7806H54.4877ZM57.9511 96.7806H61.4145ZM64.8779 96.7806H68.3413ZM82.195 96.7806H89.1218ZM92.5852 96.7806H96.0486ZM102.975 96.7806H109.902ZM113.366 96.7806H116.829ZM127.219 96.7806H130.683ZM19.8535 100.244H23.3169ZM26.7803 100.244H30.2438ZM33.7072 100.244H40.634ZM44.0974 100.244H47.5608ZM51.0242 100.244H54.4877ZM57.9511 100.244H61.4145ZM64.8779 100.244H68.3413ZM75.2681 100.244H78.7316ZM85.6584 100.244H96.0486ZM99.512 100.244H102.975ZM120.293 100.244H130.683ZM19.8535 103.707H23.3169ZM30.2438 103.707H47.5608ZM51.0242 103.707H54.4877ZM68.3413 103.707H71.8047ZM78.7316 103.707H92.5852ZM96.0486 103.707H120.293ZM127.219 103.707H134.146ZM47.5608 107.171H51.0242ZM54.4877 107.171H61.4145ZM64.8779 107.171H71.8047ZM78.7316 107.171H82.195ZM85.6584 107.171H92.5852ZM96.0486 107.171H106.439ZM116.829 107.171H120.293ZM123.756 107.171H127.219ZM130.683 107.171H134.146ZM19.8535 110.634H44.0974ZM51.0242 110.634H54.4877ZM57.9511 110.634H64.8779ZM71.8047 110.634H82.195ZM89.1218 110.634H92.5852ZM96.0486 110.634H106.439ZM109.902 110.634H113.366ZM116.829 110.634H120.293ZM123.756 110.634H130.683ZM19.8535 114.098H23.3169ZM40.634 114.098H44.0974ZM47.5608 114.098H54.4877ZM57.9511 114.098H61.4145ZM64.8779 114.098H68.3413ZM71.8047 114.098H85.6584ZM89.1218 114.098H92.5852ZM99.512 114.098H106.439ZM116.829 114.098H134.146ZM19.8535 117.561H23.3169ZM26.7803 117.561H37.1706ZM40.634 117.561H44.0974ZM47.5608 117.561H54.4877ZM64.8779 117.561H68.3413ZM75.2681 117.561H78.7316ZM89.1218 117.561H99.512ZM102.975 117.561H123.756ZM130.683 117.561H134.146ZM19.8535 121.024H23.3169ZM26.7803 121.024H37.1706ZM40.634 121.024H44.0974ZM47.5608 121.024H51.0242ZM57.9511 121.024H61.4145ZM64.8779 121.024H68.3413ZM71.8047 121.024H75.2681ZM78.7316 121.024H85.6584ZM92.5852 121.024H96.0486ZM99.512 121.024H109.902ZM116.829 121.024H127.219ZM130.683 121.024H134.146ZM19.8535 124.488H23.3169ZM26.7803 124.488H37.1706ZM40.634 124.488H44.0974ZM47.5608 124.488H51.0242ZM64.8779 124.488H68.3413ZM71.8047 124.488H78.7316ZM82.195 124.488H85.6584ZM89.1218 124.488H92.5852ZM99.512 124.488H106.439ZM109.902 124.488H116.829ZM120.293 124.488H127.219ZM19.8535 127.951H23.3169ZM40.634 127.951H44.0974ZM54.4877 127.951H57.9511ZM64.8779 127.951H68.3413ZM71.8047 127.951H75.2681ZM92.5852 127.951H96.0486ZM109.902 127.951H113.366ZM116.829 127.951H127.219ZM19.8535 131.415H44.0974ZM47.5608 131.415H54.4877ZM57.9511 131.415H61.4145ZM71.8047 131.415H75.2681ZM78.7316 131.415H85.6584ZM96.0486 131.415H99.512ZM102.975 131.415H109.902ZM113.366 131.415H116.829ZM120.293 131.415H123.756ZM127.219 131.415H130.683Z" fill="black"/>
<path d="M19.8535 20.5854H44.0974M51.0242 20.5854H54.4877M75.2681 20.5854H78.7316M85.6584 20.5854H102.975M109.902 20.5854H134.146M19.8535 24.0489H23.3169M40.634 24.0489H44.0974M54.4877 24.0489H57.9511M71.8047 24.0489H78.7316M82.195 24.0489H85.6584M89.1218 24.0489H96.0486M109.902 24.0489H113.366M130.683 24.0489H134.146M19.8535 27.5123H23.3169M26.7803 27.5123H37.1706M40.634 27.5123H44.0974M47.5608 27.5123H51.0242M57.9511 27.5123H64.8779M68.3413 27.5123H75.2681M89.1218 27.5123H96.0486M99.512 27.5123H102.975M109.902 27.5123H113.366M116.829 27.5123H127.219M130.683 27.5123H134.146M19.8535 30.9757H23.3169M26.7803 30.9757H37.1706M40.634 30.9757H44.0974M47.5608 30.9757H51.0242M54.4877 30.9757H61.4145M71.8047 30.9757H75.2681M82.195 30.9757H85.6584M92.5852 30.9757H96.0486M99.512 30.9757H102.975M109.902 30.9757H113.366M116.829 30.9757H127.219M130.683 30.9757H134.146M19.8535 34.4391H23.3169M26.7803 34.4391H37.1706M40.634 34.4391H44.0974M47.5608 34.4391H61.4145M64.8779 34.4391H78.7316M89.1218 34.4391H92.5852M99.512 34.4391H102.975M109.902 34.4391H113.366M116.829 34.4391H127.219M130.683 34.4391H134.146M19.8535 37.9025H23.3169M40.634 37.9025H44.0974M47.5608 37.9025H71.8047M78.7316 37.9025H82.195M85.6584 37.9025H89.1218M92.5852 37.9025H96.0486M102.975 37.9025H106.439M109.902 37.9025H113.366M130.683 37.9025H134.146M19.8535 41.3659H44.0974M47.5608 41.3659H51.0242M54.4877 41.3659H57.9511M61.4145 41.3659H64.8779M68.3413 41.3659H71.8047M75.2681 41.3659H78.7316M82.195 41.3659H85.6584M89.1218 41.3659H92.5852M96.0486 41.3659H99.512M102.975 41.3659H106.439M109.902 41.3659H134.146M47.5608 44.8294H51.0242M54.4877 44.8294H61.4145M75.2681 44.8294H78.7316M85.6584 44.8294H99.512M102.975 44.8294H106.439M19.8535 48.2928H23.3169M26.7803 48.2928H44.0974M54.4877 48.2928H61.4145M64.8779 48.2928H71.8047M78.7316 48.2928H89.1218M102.975 48.2928H106.439M109.902 48.2928H127.219M19.8535 51.7562H23.3169M26.7803 51.7562H33.7072M47.5608 51.7562H51.0242M57.9511 51.7562H61.4145M64.8779 51.7562H68.3413M75.2681 51.7562H92.5852M99.512 51.7562H102.975M109.902 51.7562H116.829M120.293 51.7562H127.219M130.683 51.7562H134.146M19.8535 55.2196H26.7803M33.7072 55.2196H47.5608M51.0242 55.2196H54.4877M57.9511 55.2196H75.2681M78.7316 55.2196H82.195M89.1218 55.2196H92.5852M96.0486 55.2196H99.512M102.975 55.2196H106.439M109.902 55.2196H113.366M116.829 55.2196H120.293M123.756 55.2196H127.219M19.8535 58.683H26.7803M30.2438 58.683H40.634M47.5608 58.683H51.0242M54.4877 58.683H61.4145M64.8779 58.683H68.3413M71.8047 58.683H75.2681M78.7316 58.683H85.6584M106.439 58.683H109.902M116.829 58.683H130.683M26.7803 62.1464H47.5608M51.0242 62.1464H54.4877M61.4145 62.1464H64.8779M68.3413 62.1464H71.8047M75.2681 62.1464H78.7316M85.6584 62.1464H102.975M106.439 62.1464H109.902M113.366 62.1464H123.756M130.683 62.1464H134.146M19.8535 65.6098H23.3169M26.7803 65.6098H33.7072M37.1706 65.6098H40.634M47.5608 65.6098H51.0242M54.4877 65.6098H57.9511M61.4145 65.6098H68.3413M71.8047 65.6098H75.2681M78.7316 65.6098H85.6584M99.512 65.6098H102.975M109.902 65.6098H113.366M120.293 65.6098H123.756M127.219 65.6098H134.146M26.7803 69.0733H30.2438M37.1706 69.0733H47.5608M61.4145 69.0733H78.7316M89.1218 69.0733H99.512M106.439 69.0733H116.829M127.219 69.0733H130.683M37.1706 72.5367H40.634M47.5608 72.5367H57.9511M64.8779 72.5367H75.2681M92.5852 72.5367H99.512M102.975 72.5367H113.366M116.829 72.5367H127.219M26.7803 76.0001H30.2438M33.7072 76.0001H44.0974M51.0242 76.0001H54.4877M61.4145 76.0001H75.2681M78.7316 76.0001H85.6584M96.0486 76.0001H99.512M102.975 76.0001H109.902M113.366 76.0001H120.293M130.683 76.0001H134.146M23.3169 79.4635H26.7803M33.7072 79.4635H40.634M54.4877 79.4635H57.9511M61.4145 79.4635H64.8779M75.2681 79.4635H78.7316M85.6584 79.4635H102.975M109.902 79.4635H116.829M120.293 79.4635H127.219M130.683 79.4635H134.146M23.3169 82.9269H30.2438M33.7072 82.9269H37.1706M40.634 82.9269H47.5608M68.3413 82.9269H78.7316M82.195 82.9269H85.6584M92.5852 82.9269H96.0486M102.975 82.9269H109.902M113.366 82.9269H120.293M123.756 82.9269H130.683M23.3169 86.3903H30.2438M47.5608 86.3903H51.0242M54.4877 86.3903H57.9511M61.4145 86.3903H78.7316M85.6584 86.3903H99.512M102.975 86.3903H106.439M109.902 86.3903H134.146M23.3169 89.8537H30.2438M40.634 89.8537H44.0974M57.9511 89.8537H68.3413M82.195 89.8537H85.6584M92.5852 89.8537H96.0486M102.975 89.8537H109.902M113.366 89.8537H123.756M130.683 89.8537H134.146M19.8535 93.3172H23.3169M26.7803 93.3172H37.1706M57.9511 93.3172H61.4145M64.8779 93.3172H68.3413M71.8047 93.3172H78.7316M89.1218 93.3172H102.975M106.439 93.3172H113.366M120.293 93.3172H123.756M130.683 93.3172H134.146M19.8535 96.7806H23.3169M26.7803 96.7806H30.2438M33.7072 96.7806H54.4877M57.9511 96.7806H61.4145M64.8779 96.7806H68.3413M82.195 96.7806H89.1218M92.5852 96.7806H96.0486M102.975 96.7806H109.902M113.366 96.7806H116.829M127.219 96.7806H130.683M19.8535 100.244H23.3169M26.7803 100.244H30.2438M33.7072 100.244H40.634M44.0974 100.244H47.5608M51.0242 100.244H54.4877M57.9511 100.244H61.4145M64.8779 100.244H68.3413M75.2681 100.244H78.7316M85.6584 100.244H96.0486M99.512 100.244H102.975M120.293 100.244H130.683M19.8535 103.707H23.3169M30.2438 103.707H47.5608M51.0242 103.707H54.4877M68.3413 103.707H71.8047M78.7316 103.707H92.5852M96.0486 103.707H120.293M127.219 103.707H134.146M47.5608 107.171H51.0242M54.4877 107.171H61.4145M64.8779 107.171H71.8047M78.7316 107.171H82.195M85.6584 107.171H92.5852M96.0486 107.171H106.439M116.829 107.171H120.293M123.756 107.171H127.219M130.683 107.171H134.146M19.8535 110.634H44.0974M51.0242 110.634H54.4877M57.9511 110.634H64.8779M71.8047 110.634H82.195M89.1218 110.634H92.5852M96.0486 110.634H106.439M109.902 110.634H113.366M116.829 110.634H120.293M123.756 110.634H130.683M19.8535 114.098H23.3169M40.634 114.098H44.0974M47.5608 114.098H54.4877M57.9511 114.098H61.4145M64.8779 114.098H68.3413M71.8047 114.098H85.6584M89.1218 114.098H92.5852M99.512 114.098H106.439M116.829 114.098H134.146M19.8535 117.561H23.3169M26.7803 117.561H37.1706M40.634 117.561H44.0974M47.5608 117.561H54.4877M64.8779 117.561H68.3413M75.2681 117.561H78.7316M89.1218 117.561H99.512M102.975 117.561H123.756M130.683 117.561H134.146M19.8535 121.024H23.3169M26.7803 121.024H37.1706M40.634 121.024H44.0974M47.5608 121.024H51.0242M57.9511 121.024H61.4145M64.8779 121.024H68.3413M71.8047 121.024H75.2681M78.7316 121.024H85.6584M92.5852 121.024H96.0486M99.512 121.024H109.902M116.829 121.024H127.219M130.683 121.024H134.146M19.8535 124.488H23.3169M26.7803 124.488H37.1706M40.634 124.488H44.0974M47.5608 124.488H51.0242M64.8779 124.488H68.3413M71.8047 124.488H78.7316M82.195 124.488H85.6584M89.1218 124.488H92.5852M99.512 124.488H106.439M109.902 124.488H116.829M120.293 124.488H127.219M19.8535 127.951H23.3169M40.634 127.951H44.0974M54.4877 127.951H57.9511M64.8779 127.951H68.3413M71.8047 127.951H75.2681M92.5852 127.951H96.0486M109.902 127.951H113.366M116.829 127.951H127.219M19.8535 131.415H44.0974M47.5608 131.415H54.4877M57.9511 131.415H61.4145M71.8047 131.415H75.2681M78.7316 131.415H85.6584M96.0486 131.415H99.512M102.975 131.415H109.902M113.366 131.415H116.829M120.293 131.415H123.756M127.219 131.415H130.683" stroke="#145044" stroke-width="2.85732"/>
</g>
</g>
<defs>
<filter id="filter0_d_983_19192" x="0" y="0" width="154" height="154" filterUnits="userSpaceOnUse" color-interpolation-filters="sRGB">
<feFlood flood-opacity="0" result="BackgroundImageFix"/>
<feColorMatrix in="SourceAlpha" type="matrix" values="0 0 0 0 0 0 0 0 0 0 0 0 0 0 0 0 0 0 127 0" result="hardAlpha"/>
<feMorphology radius="2" operator="dilate" in="SourceAlpha" result="effect1_dropShadow_983_19192"/>
<feOffset dy="1"/>
<feGaussianBlur stdDeviation="2"/>
<feComposite in2="hardAlpha" operator="out"/>
<feColorMatrix type="matrix" values="0 0 0 0 0.668848 0 0 0 0 0.668848 0 0 0 0 0.668848 0 0 0 0.25 0"/>
<feBlend mode="normal" in2="BackgroundImageFix" result="effect1_dropShadow_983_19192"/>
<feBlend mode="normal" in="SourceGraphic" in2="effect1_dropShadow_983_19192" result="shape"/>
</filter>
<clipPath id="clip0_983_19192">
<rect x="6" y="5" width="142" height="142" rx="5" fill="white"/>
</clipPath>
</defs>
</svg>
